<?xml version="1.0" encoding="utf-8"?>
<!DOCTYPE svg PUBLIC "-//W3C//DTD SVG 1.0//EN" "http://www.w3.org/TR/2001/REC-SVG-20010904/DTD/svg10.dtd">
<svg version="1.0" xmlns="http://www.w3.org/2000/svg" width="512px" height="512px" viewBox="0 0 512 512" preserveAspectRatio="xMidYMid meet">
 <g fill="#000000">
  <path d="M334.4 508.4 c-3.2 -1.9 -7.4 -5 -9.3 -6.7 -3.6 -3.5 -59.3 -71.2 -64.9 -78.9 -9.8 -13.8 -9.6 -34.1 0.5 -44.9 6.1 -6.5 11.5 -8.3 23.7 -7.7 12 0.6 16 2.6 30.6 15.2 l11.5 9.9 0.5 -78.4 c0.4 -64.5 0.8 -79 1.9 -81.9 5.6 -13.9 14.9 -19.5 30.9 -18.8 13.1 0.5 20.8 5.3 26.2 16.3 l2.5 5 0.3 43.7 0.3 43.7 3.7 1 c2 0.6 9.3 2.4 16.2 4.1 32.9 8.3 44.5 13.8 52.3 25.1 6.8 10 6.7 8.4 6.7 75.8 -0.1 48.4 -0.4 61.4 -1.4 64.4 -2 5.5 -6.2 11.1 -10.5 14.1 l-3.7 2.6 -56 0 -56 0 -6 -3.6z m105.3 -17.4 c6.4 -3.9 6.3 -2.5 6.3 -60.5 0 -42.3 -0.3 -53.2 -1.4 -55.9 -1.9 -4.6 -7.2 -10.4 -11.6 -12.6 -4.9 -2.5 -22.4 -7.7 -41.8 -12.5 -16.6 -4.1 -20.3 -6 -22.8 -12.2 -1.1 -2.6 -1.4 -12.1 -1.4 -46 0 -47 0 -47.1 -6.2 -51.6 -2.5 -1.9 -2.8 -1.9 -5.2 -0.3 -1.4 0.9 -3.4 2.8 -4.3 4.3 -1.7 2.5 -1.8 8.9 -2.3 93.6 l-0.5 90.9 -2.8 2.4 c-3.2 2.7 -10.6 3.3 -14.3 1.1 -1.2 -0.7 -10.5 -8.6 -20.7 -17.6 -25.5 -22.4 -27.5 -23.6 -31.9 -20.1 -3.4 2.7 -3.9 5.1 -1.8 9.7 2 4.2 60.2 76.1 65.3 80.6 1.8 1.6 5.9 4.1 9.2 5.8 l6 2.9 39.5 0 c37.4 0 39.7 -0.1 42.7 -2z"/>
  <path d="M13.8 428 c-4.3 -1.3 -9.6 -4.9 -11.8 -8 -2 -2.8 -2 -3.8 -2 -207.3 l0 -204.5 4.1 -4.1 4.1 -4.1 247.8 0 247.8 0 4.1 4.1 4.1 4.1 0 204.6 0 204.5 -4.5 4.3 c-5.5 5.3 -13.1 7.8 -21.3 7.2 -7.4 -0.7 -9.2 -2.8 -9.2 -11.3 0 -5.7 0.3 -6.6 2.6 -8.4 1.5 -1.2 3.8 -2.1 5.1 -2.1 1.4 0 3.7 -1.3 5.4 -2.9 l2.9 -2.9 0 -155.6 0 -155.6 -237 0 -237 0 0 156 0 156.1 2.5 2.4 2.4 2.5 105.1 0 105.1 0 2.4 2.5 c2.1 2 2.5 3.4 2.5 7.9 0 6.9 -0.6 8.3 -4.1 10.1 -2.4 1.3 -17.8 1.5 -110.6 1.4 -59.3 0 -109 -0.4 -110.5 -0.9z m479.2 -382 l0 -22.1 -2.5 -2.4 -2.4 -2.5 -232.1 0 -232.1 0 -2.4 2.5 -2.5 2.4 0 22.1 0 22 237 0 237 0 0 -22z"/>
  <path d="M176.4 54 c-3.6 -1.4 -5.4 -5 -5.4 -10.6 0 -3.7 0.6 -5.9 2.1 -7.8 l2 -2.6 142.8 0 142.8 0 2.1 2.3 c1.8 1.9 2.2 3.5 2.2 8.3 -0.1 6.5 -1.3 8.8 -5.4 10.4 -3.4 1.3 -280 1.3 -283.2 0z"/>
  <path d="M39.1 51.4 c-3.2 -4 -2.9 -12.6 0.4 -15.9 2 -2.1 3.4 -2.5 8.3 -2.5 8.1 0 10.2 2.2 10.2 10.8 0 8.5 -1.7 10.2 -10.4 10.2 -5.8 0 -6.7 -0.3 -8.5 -2.6z"/>
  <path d="M73 52 c-3.1 -3.1 -2.9 -13.8 0.3 -16.8 3.5 -3.3 12.9 -3.1 16.2 0.3 2.1 2 2.5 3.4 2.5 8.3 0 8.1 -2.2 10.2 -10.8 10.2 -4.9 0 -6.6 -0.4 -8.2 -2z"/>
  <path d="M107 52.2 c-2.3 -1.9 -3.7 -8.4 -2.6 -12.7 1.2 -4.8 4 -6.5 10.6 -6.5 5.1 0 6.5 0.4 8.5 2.5 3.3 3.3 3.6 11.9 0.4 15.9 -1.8 2.3 -2.7 2.6 -8.4 2.6 -4.5 0 -6.9 -0.5 -8.5 -1.8z"/>
  <path d="M45.8 384 c-2.9 -2.9 -3 -3.4 -2.6 -9.2 0.7 -9.9 0.3 -9.8 29.8 -9.8 23.5 0 24.9 0.1 27.4 2.1 2.4 1.9 2.6 2.7 2.6 8.9 0 6.2 -0.2 7 -2.6 8.9 -2.5 2 -3.9 2.1 -27.1 2.1 l-24.5 0 -3 -3z"/>
  <path d="M47.2 352.3 c-2.2 -0.9 -4.2 -6 -4.2 -10.8 0 -3.8 0.5 -5.2 2.9 -7.6 l2.9 -2.9 57 0 c55.8 0 57 0 59.5 2 4.6 3.6 4.8 13.9 0.5 18 -2.1 2 -3.5 2 -59.7 1.9 -31.7 0 -58.2 -0.3 -58.9 -0.6z"/>
  <path d="M58.9 313.1 c-6 -1.2 -10.5 -4.7 -13.3 -10.3 l-2.6 -5.2 0 -79.8 c0 -69.8 0.2 -80.3 1.5 -83.6 2 -4.7 5 -7.9 9.7 -10.3 3.7 -1.9 6.7 -1.9 89.1 -1.7 l85.3 0.3 3.6 2.4 c1.9 1.3 4.6 4 5.9 5.9 l2.4 3.6 0.3 81.8 c0.2 78.6 0.2 82.1 -1.7 86.2 -2.3 5.3 -7.1 9.1 -13.1 10.5 -5.1 1.2 -161.1 1.3 -167.1 0.2z m158.4 -22.3 c1.6 -1.2 1.7 -6.5 1.5 -73.8 l-0.3 -72.5 -19.7 -0.3 -19.8 -0.2 0 28.1 c0 23.9 -0.2 28.6 -1.6 31.5 -2.3 4.8 -5.9 6.4 -14.3 6.4 -6.5 0 -7.2 -0.2 -11.8 -3.9 -2.6 -2.1 -5.6 -4.8 -6.7 -5.9 l-1.9 -2.1 -5.6 5 c-3.1 2.8 -7 5.7 -8.8 6.5 -7.2 3.1 -16.5 0.9 -20.7 -4.9 -2 -2.7 -2.1 -4.4 -2.4 -31.8 l-0.3 -28.9 -19.4 0 c-16.7 0 -19.4 0.2 -19.9 1.6 -0.3 0.9 -0.6 33.7 -0.6 72.9 0 66.9 0.1 71.5 1.8 72.4 2.7 1.6 148.3 1.5 150.5 -0.1z m-74.8 -117.8 c6 0 7.8 0.4 10.9 2.5 l3.6 2.4 0 -16.9 0 -17 -15 0 -15 0 0 17.5 0 17.5 4.2 -3 c3.6 -2.7 4.9 -3 11.3 -3z"/>
  <path d="M155.3 273 c-3.2 -1.3 -4.3 -4.1 -4.3 -10.8 0 -4.8 0.4 -6.2 2.3 -8 2.2 -2.1 3.1 -2.2 23.9 -2.2 l21.7 0 2 2.6 c1.6 2 2.1 4.1 2.1 8.3 -0.1 10.4 -1.8 11.1 -26.2 11 -10.6 0 -20.3 -0.4 -21.5 -0.9z"/>
  <path d="M290.5 278.1 c-7.6 -1.9 -15.5 -9.1 -17.6 -16.1 -0.6 -2.2 -0.9 -14.6 -0.7 -33.1 l0.3 -29.6 3 -4.9 c1.9 -3 4.9 -6 7.9 -7.9 l4.9 -3 78.1 -0.3 c56.8 -0.2 79.2 0 82.3 0.9 5.6 1.5 11.6 6.8 14.5 12.7 2.3 4.6 2.3 5.3 2.3 34.2 0 28.3 -0.1 29.7 -2.1 33.5 -2.8 5.1 -6.8 9.1 -11.9 11.8 -3.6 1.9 -5.9 2.2 -21.3 2.5 -19 0.4 -21.3 0.1 -24.2 -2.8 -3.1 -3.1 -2.9 -13.8 0.3 -16.8 2.2 -2 3.3 -2.2 15.9 -2.2 7.5 0 14.8 -0.4 16.3 -1 4.6 -1.7 5.5 -6 5.5 -25.4 0 -17.6 -0.7 -21.9 -3.8 -24.2 -1.4 -1.1 -15.9 -1.3 -71.8 -1.4 l-70.1 0 -2.1 2.3 c-2.1 2.2 -2.2 3.2 -2.2 22.9 0 11.4 0.3 21.4 0.6 22.3 1 2.6 5.9 4.5 11.7 4.5 7.4 0 9.7 2.5 9.7 10.2 0 7.1 -0.6 8.5 -4.1 10.3 -3 1.6 -15.9 1.9 -21.4 0.6z"/>
 </g>
 <g fill="#ffffff">
  <path d="M0 459.3 c0.1 -44.4 0.3 -52.2 1.4 -49.2 2 5.6 5.3 9.6 10.4 12.6 l4.7 2.8 105.5 0.3 c58 0.1 106.5 0 107.8 -0.3 6.1 -1.5 8.2 -8.6 3.7 -13 l-2.4 -2.5 -105.1 0 -105.1 0 -2.4 -2.5 -2.5 -2.4 0 -159.1 0 -159 240 0 240 0 0 158.6 0 158.6 -2.9 2.9 c-1.7 1.6 -4 2.9 -5.4 2.9 -3.9 0 -7.7 3.6 -7.7 7.4 0 7.1 5.3 9.8 14.2 7.2 6.9 -2 12.5 -6.7 15.4 -13 l2.4 -5.1 0 52.8 0 52.7 -35.7 -0.1 c-31.6 0 -35.3 -0.2 -31.5 -1.4 8.7 -2.7 15.6 -9.5 18.8 -18.2 1 -3 1.3 -15.5 1.4 -61.4 0 -64.1 0.1 -62.9 -6.7 -72.8 -7.8 -11.3 -19.4 -16.8 -52.3 -25.1 -6.9 -1.7 -14.2 -3.5 -16.2 -4.1 l-3.7 -1 -0.3 -43.7 -0.3 -43.7 -2.5 -5 c-4.8 -9.8 -13 -15.5 -23.2 -16.3 -9.7 -0.7 -19.4 4 -24.3 11.9 -5.6 8.7 -5.5 7.6 -5.5 93.6 l0 79.3 -14.1 -12.2 c-7.7 -6.8 -16.5 -13.6 -19.6 -15.2 -7.2 -3.7 -16 -4.5 -23.1 -2.2 -9.4 3.2 -17.2 14.5 -17.2 25.2 0 5.2 3.5 15 7.2 20.2 6.8 9.4 61.6 75.8 65.5 79.3 5.4 4.9 12.1 8.7 19.1 11 5.6 1.7 1.4 1.8 -171 1.8 l-176.8 0.1 0 -52.7z m97.4 -77.4 c3.7 -2.9 3.7 -8.9 0 -11.8 -2.5 -2 -3.9 -2.1 -24.4 -2.1 -24.2 0 -25.4 0.3 -26.6 6.7 -0.5 2.7 -0.1 3.7 2.4 6.3 l3 3 21.5 0 c20.2 0 21.6 -0.1 24.1 -2.1z m64.8 -33.3 c2.6 -1.9 3.9 -6.2 2.8 -9 -2.1 -5.7 -0.7 -5.6 -59.3 -5.6 l-53.9 0 -2.9 2.9 c-1.6 1.6 -2.9 3.7 -2.9 4.6 0 2.2 2.7 7.2 4.2 7.8 0.7 0.3 25.8 0.6 55.8 0.6 43.2 0 54.9 -0.2 56.2 -1.3z m60.8 -38.7 c6 -1.4 10.8 -5.2 13.1 -10.5 1.9 -4.1 1.9 -7.5 1.7 -83.2 l-0.3 -78.8 -2.4 -3.6 c-1.3 -1.9 -4 -4.6 -5.9 -5.9 l-3.6 -2.4 -82.3 -0.3 c-79.5 -0.2 -82.4 -0.2 -86.1 1.7 -4.7 2.4 -7.7 5.6 -9.7 10.3 -1.3 3.3 -1.5 13.5 -1.5 80.6 l0 76.8 2.6 5.2 c2.8 5.6 7.3 9.1 13.3 10.3 5.9 1.1 156 1 161.1 -0.2z m85.9 -35.4 c4.7 -2.4 5.6 -8.3 1.9 -12.2 -1.7 -1.8 -3.2 -2.3 -7.5 -2.3 -5.8 0 -10.7 -1.9 -11.7 -4.5 -0.3 -0.9 -0.6 -12.3 -0.6 -25.3 0 -22.8 0.1 -23.6 2.2 -25.9 l2.1 -2.3 73.1 0 c58.4 0.1 73.4 0.3 74.8 1.4 3.2 2.4 3.8 6.5 3.8 27.2 0 22.6 -0.8 26.6 -5.5 28.4 -1.5 0.6 -8.8 1 -16.3 1 -12.6 0 -13.7 0.2 -15.9 2.2 -4.5 4.2 -2.2 11.8 4.1 13.4 1.4 0.3 8.9 0.4 16.8 0.2 12.2 -0.3 14.9 -0.7 18.3 -2.5 5.1 -2.7 9.1 -6.7 11.9 -11.8 2 -3.8 2.1 -5.3 2.1 -30.5 0 -25.8 -0.1 -26.6 -2.3 -31.2 -2.9 -5.9 -8.9 -11.2 -14.5 -12.7 -3 -0.9 -24.7 -1.1 -79.3 -0.9 l-75.1 0.3 -4.9 3 c-3 1.9 -6 4.9 -7.9 7.9 l-3 4.9 -0.3 26.6 c-0.2 16.5 0.1 27.9 0.7 30.1 1.3 4.4 7.2 11.5 11.5 13.7 6.5 3.4 16.8 4.3 21.5 1.8z"/>
  <path d="M63.8 293.9 c-1.7 -0.9 -1.8 -5.6 -1.8 -75.4 0 -40.9 0.3 -75 0.6 -75.9 0.5 -1.4 3.5 -1.6 22.9 -1.6 l22.4 0 0.3 28.9 c0.3 27.4 0.4 29.1 2.4 31.8 2.9 3.9 8.6 6.6 12.5 5.8 1.6 -0.4 5.8 -3 9.1 -5.8 11.7 -10 10 -9.6 16 -4 8.6 8 10.7 9.3 15 9.3 5.3 0 9.2 -2.2 11.2 -6.4 1.4 -2.9 1.6 -7.6 1.6 -31.5 l0 -28.1 22.8 0.2 22.7 0.3 0.3 75.5 c0.2 70.1 0.1 75.6 -1.5 76.8 -2.2 1.6 -153.8 1.7 -156.5 0.1z m131.5 -24.1 c5 -2.6 6.1 -7.7 2.6 -12.2 l-2 -2.6 -18.7 0 c-17.7 0 -18.7 0.1 -20.9 2.2 -3.8 3.6 -2.7 10.9 2 12.8 3.4 1.3 34.4 1.2 37 -0.2z"/>
  <path d="M124 163.5 l0 -22.5 18 0 18 0 0 22.5 c0 12.4 -0.4 22.5 -0.8 22.5 -0.4 0 -2.4 -1.6 -4.3 -3.6 -4.4 -4.6 -7.9 -6.4 -12.6 -6.4 -4.1 0 -6.4 1.3 -12.6 6.7 -2 1.8 -4.2 3.3 -4.7 3.3 -0.6 0 -1 -8.2 -1 -22.5z"/>
  <path d="M348.5 493.1 c-3.3 -1.7 -7.4 -4.2 -9.2 -5.8 -5.6 -4.9 -63.4 -76.6 -65.5 -81.2 -2.7 -5.9 -2 -11.7 1.8 -15 2.3 -1.9 3.6 -2.2 7.4 -1.9 6 0.6 8.4 2.3 30.7 21.9 10.2 9 19.5 16.9 20.7 17.6 3.3 1.9 5.5 1.5 8.7 -1.6 l2.9 -2.9 0 -88.4 c0 -57.1 0.4 -89.6 1 -92 2.2 -7.9 11.4 -11.4 17.5 -6.6 5.4 4.2 5.5 5.1 5.5 51.3 0 33.7 0.3 43.2 1.4 45.8 2.5 6.2 6.2 8.1 22.8 12.2 19.4 4.8 36.9 10 41.8 12.5 4.4 2.2 9.7 8 11.6 12.6 1.1 2.7 1.4 14 1.4 58.9 0 61.4 0.2 59.6 -6.3 63.5 -3 1.9 -5.3 2 -45.7 2 l-42.5 0 -6 -2.9z"/>
  <path d="M16 46 l0 -25.1 2.5 -2.4 2.4 -2.5 235.1 0 235.1 0 2.4 2.5 2.5 2.4 0 25.1 0 25 -240 0 -240 0 0 -25z m440.6 5 c5.6 -2.2 7.2 -8.5 3.2 -12.7 l-2.1 -2.3 -139.8 0 -139.8 0 -2 2.6 c-1.2 1.5 -2.1 3.6 -2.1 4.8 0 2.8 2.6 6.5 5.4 7.6 3.2 1.3 273.8 1.3 277.2 0z m-403.6 -2 c4.4 -4.4 0.9 -13 -5.2 -13 -3.6 0 -7.8 4 -7.8 7.3 0 1.3 0.9 3.6 2.1 5.1 2.6 3.3 7.9 3.6 10.9 0.6z m33.7 -0.2 c3.1 -2.9 3 -7.2 -0.2 -10.3 -4.8 -4.9 -12.5 -1.7 -12.5 5.2 0 6.6 7.7 9.8 12.7 5.1z m34.2 -0.4 c2.8 -3.5 2.6 -6.9 -0.4 -9.9 -2.4 -2.4 -5.7 -3.1 -9 -1.9 -2.4 1 -4.6 6 -3.9 8.9 1.4 5.7 9.7 7.5 13.3 2.9z"/>
  <path d="M0 9.8 l0 -9.8 9.8 0 c9.2 0.1 9.5 0.2 6.1 1.4 -6.7 2.4 -12.1 7.8 -14.5 14.5 -1.2 3.4 -1.3 3.1 -1.4 -6.1z"/>
  <path d="M511 17.2 c0 -2.5 -4.8 -9.5 -8.4 -12.3 -1.5 -1.2 -4.4 -2.8 -6.5 -3.5 -3.4 -1.2 -3.1 -1.3 6.2 -1.4 l9.7 0 0 9.5 c0 5.2 -0.2 9.5 -0.5 9.5 -0.3 0 -0.5 -0.8 -0.5 -1.8z"/>
 </g>
</svg>